
<svg xmlns="http://www.w3.org/2000/svg" version="1.1" xmlns:xlink="http://www.w3.org/1999/xlink" preserveAspectRatio="none" x="0px" y="0px" width="600px" height="215px" viewBox="0 0 600 215">
<defs/>

<g id="Layer_2">
<g>
<g>
<g>
<path fill="#FFFFFF" stroke="none" d="
M 367.55 41.05
L 367.35 40.7 220.05 40.7 236.85 84.4 282.8 84.4 258.15 121.95 258.1 121.95 222.45 176.2 340 176.2 355.9 134.85 305.85 134.85 367.55 41.05
M 214.25 176.2
L 249.9 121.95 199.25 121.95 159.4 18.3
Q 154.35 7.15 145.4 2.95 140.3 0.55 133.95 0.4
L 29.4 0.4 62.85 51.25 0 214.65 87.7 214.65 102.5 176.2 214.25 176.2
M 118.4 134.85
L 118.2 135.4 117.85 134.85 118.4 134.85
M 136.25 121.95
L 99.6 121.95 117.9 74.35 136.25 121.95
M 441.95 45.35
Q 441.75 45.2 441.5 45 435.35 41 427.05 40.7
L 372 40.7 369.65 44.25 389.25 74 349.95 176.2 406.05 176.2 415.8 150.8 487.95 150.8 453 59.95
Q 448.9 50.1 441.95 45.35
M 433.7 115.15
L 414.55 115.15 424.1 90.25 433.7 115.15
M 529 84.4
Q 539 84.65 546.15 91.8 553.55 99.2 553.55 109.65 553.55 120.1 546.15 127.45 539 134.65 529 134.85
L 492.8 134.85 506.85 171.5
Q 517.95 175.95 530.8 176.2
L 534.05 176.2
Q 560.95 175.6 580.2 156.4 599.4 137.15 600 110.25
L 600 106.75
Q 599.4 79.8 580.2 60.55 560.95 41.35 534.05 40.75
L 456.55 40.7 473.35 84.4 529 84.4 Z"/>
</g>
</g>
</g>
</g>
</svg>
